<svg height='100px' width='100px'  fill="#000000" xmlns="http://www.w3.org/2000/svg" viewBox="0 0 64 64" x="0px" y="0px"><title>a</title><g data-name="08 Face Recognition from Side"><path d="M4,10a6,6,0,0,1,6-6H20V0H10A10,10,0,0,0,0,10V20H4Z"></path><path d="M54,0H44V4H54a6,6,0,0,1,6,6V20h4V10A10,10,0,0,0,54,0Z"></path><path d="M4,54.12v-10H0v10a10,10,0,0,0,10,10H20v-4H10A6,6,0,0,1,4,54.12Z"></path><path d="M60,54.12a6,6,0,0,1-6,6H44v4H54a10,10,0,0,0,10-10v-10H60Z"></path><path d="M49,32.79V25A15,15,0,0,0,33.28,10,15.16,15.16,0,0,0,19,25.37v1.76l-3.35,8.8A3,3,0,0,0,18.45,40H19a6,6,0,0,0,6,6h2v8H43V45A15.42,15.42,0,0,0,49,32.79Zm-9.11,9.55-.89.59V50H31V42H25a2,2,0,0,1-2-2V36H19.9L23,27.87v-2.5A11.18,11.18,0,0,1,33.46,14,11,11,0,0,1,45,25v7.79A11.47,11.47,0,0,1,39.89,42.34Z"></path><rect x="26" y="24" width="4" height="4"></rect></g></svg>